<?xml version="1.0" encoding="UTF-8"?>
<svg width="600" height="400" viewBox="0 0 600 400" fill="none" xmlns="http://www.w3.org/2000/svg">
  <!-- Desk -->
  <rect x="100" y="250" width="400" height="20" fill="#6B46C1"/>
  <rect x="120" y="270" width="15" height="100" fill="#6B46C1"/>
  <rect x="465" y="270" width="15" height="100" fill="#6B46C1"/>
  
  <!-- Computer -->
  <rect x="200" y="150" width="200" height="130" rx="10" fill="#E9D5FF"/>
  <rect x="210" y="160" width="180" height="100" fill="#ffffff"/>
  <rect x="280" y="280" width="40" height="10" fill="#E9D5FF"/>
  <rect x="260" y="290" width="80" height="5" fill="#E9D5FF"/>
  
  <!-- Person -->
  <path d="M320 200 C320 160, 380 160, 380 200" fill="#9333EA"/>
  <circle cx="350" cy="150" r="30" fill="#9333EA"/>
  
  <!-- Decorative Elements -->
  <circle cx="150" cy="100" r="10" fill="#E9D5FF"/>
  <circle cx="450" cy="120" r="15" fill="#E9D5FF"/>
  <circle cx="480" cy="180" r="8" fill="#E9D5FF"/>
  
  <!-- Icons floating -->
  <circle cx="420" cy="80" r="20" fill="#EDE9FE"/>
  <circle cx="460" cy="140" r="15" fill="#EDE9FE"/>
  <circle cx="500" cy="100" r="25" fill="#EDE9FE"/>
</svg> 